<mxfile host="app.diagrams.net" modified="2021-05-06T05:14:17.766Z" agent="5.0 (Windows NT 10.0; Win64; x64) AppleWebKit/537.36 (KHTML, like Gecko) Chrome/88.0.4324.182 Safari/537.36" etag="c2ScnNbIPwqwXl62YbUx" version="14.6.10" type="github">
  <diagram id="n87L2U8wkpmtv-38984O" name="第 1 页">
    <mxGraphModel dx="1673" dy="831" grid="1" gridSize="10" guides="1" tooltips="1" connect="1" arrows="1" fold="1" page="1" pageScale="1" pageWidth="827" pageHeight="1169" math="0" shadow="0">
      <root>
        <mxCell id="0" />
        <mxCell id="1" parent="0" />
        <mxCell id="TYqqyXj6VG3_gaBh5XJg-9" style="edgeStyle=orthogonalEdgeStyle;rounded=0;orthogonalLoop=1;jettySize=auto;html=1;exitX=0.5;exitY=1;exitDx=0;exitDy=0;exitPerimeter=0;entryX=0.5;entryY=0;entryDx=0;entryDy=0;" parent="1" source="TYqqyXj6VG3_gaBh5XJg-1" target="TYqqyXj6VG3_gaBh5XJg-2" edge="1">
          <mxGeometry relative="1" as="geometry" />
        </mxCell>
        <mxCell id="TYqqyXj6VG3_gaBh5XJg-1" value="开始" style="strokeWidth=1;html=1;shape=mxgraph.flowchart.terminator;whiteSpace=wrap;rounded=1;glass=0;fontSize=15;" parent="1" vertex="1">
          <mxGeometry x="324" y="80" width="90" height="50" as="geometry" />
        </mxCell>
        <mxCell id="TYqqyXj6VG3_gaBh5XJg-10" style="edgeStyle=orthogonalEdgeStyle;rounded=0;orthogonalLoop=1;jettySize=auto;html=1;exitX=0.5;exitY=1;exitDx=0;exitDy=0;" parent="1" source="TYqqyXj6VG3_gaBh5XJg-2" target="TYqqyXj6VG3_gaBh5XJg-3" edge="1">
          <mxGeometry relative="1" as="geometry" />
        </mxCell>
        <mxCell id="TYqqyXj6VG3_gaBh5XJg-2" value="&lt;font style=&quot;font-size: 15px&quot;&gt;进入系统主页面&lt;/font&gt;" style="rounded=0;whiteSpace=wrap;html=1;" parent="1" vertex="1">
          <mxGeometry x="309" y="160" width="120" height="40" as="geometry" />
        </mxCell>
        <mxCell id="TYqqyXj6VG3_gaBh5XJg-19" style="edgeStyle=orthogonalEdgeStyle;rounded=0;orthogonalLoop=1;jettySize=auto;html=1;exitX=0.5;exitY=1;exitDx=0;exitDy=0;entryX=0.5;entryY=0;entryDx=0;entryDy=0;" parent="1" source="TYqqyXj6VG3_gaBh5XJg-3" target="TYqqyXj6VG3_gaBh5XJg-6" edge="1">
          <mxGeometry relative="1" as="geometry" />
        </mxCell>
        <mxCell id="TYqqyXj6VG3_gaBh5XJg-20" style="edgeStyle=orthogonalEdgeStyle;rounded=0;orthogonalLoop=1;jettySize=auto;html=1;exitX=0.5;exitY=1;exitDx=0;exitDy=0;" parent="1" source="TYqqyXj6VG3_gaBh5XJg-3" target="TYqqyXj6VG3_gaBh5XJg-18" edge="1">
          <mxGeometry relative="1" as="geometry" />
        </mxCell>
        <mxCell id="TYqqyXj6VG3_gaBh5XJg-3" value="&lt;span style=&quot;font-size: 15px&quot;&gt;点击&lt;br&gt;[CI WORKFLOW]&lt;/span&gt;" style="rounded=0;whiteSpace=wrap;html=1;" parent="1" vertex="1">
          <mxGeometry x="296" y="230" width="146" height="40" as="geometry" />
        </mxCell>
        <mxCell id="TYqqyXj6VG3_gaBh5XJg-15" style="edgeStyle=orthogonalEdgeStyle;rounded=0;orthogonalLoop=1;jettySize=auto;html=1;exitX=0.5;exitY=1;exitDx=0;exitDy=0;" parent="1" source="TYqqyXj6VG3_gaBh5XJg-4" target="TYqqyXj6VG3_gaBh5XJg-7" edge="1">
          <mxGeometry relative="1" as="geometry" />
        </mxCell>
        <mxCell id="TYqqyXj6VG3_gaBh5XJg-4" value="&lt;span style=&quot;font-size: 15px&quot;&gt;选择创建时间&lt;/span&gt;" style="rounded=0;whiteSpace=wrap;html=1;" parent="1" vertex="1">
          <mxGeometry x="150" y="460" width="146" height="40" as="geometry" />
        </mxCell>
        <mxCell id="TYqqyXj6VG3_gaBh5XJg-16" style="edgeStyle=orthogonalEdgeStyle;rounded=0;orthogonalLoop=1;jettySize=auto;html=1;exitX=0.5;exitY=1;exitDx=0;exitDy=0;" parent="1" source="TYqqyXj6VG3_gaBh5XJg-5" target="TYqqyXj6VG3_gaBh5XJg-7" edge="1">
          <mxGeometry relative="1" as="geometry" />
        </mxCell>
        <mxCell id="TYqqyXj6VG3_gaBh5XJg-5" value="&lt;span style=&quot;font-size: 15px&quot;&gt;填写任务描述关键字/词&lt;/span&gt;" style="rounded=0;whiteSpace=wrap;html=1;" parent="1" vertex="1">
          <mxGeometry x="450" y="460" width="170" height="40" as="geometry" />
        </mxCell>
        <mxCell id="TYqqyXj6VG3_gaBh5XJg-12" style="edgeStyle=orthogonalEdgeStyle;rounded=0;orthogonalLoop=1;jettySize=auto;html=1;exitX=0.5;exitY=1;exitDx=0;exitDy=0;" parent="1" target="TYqqyXj6VG3_gaBh5XJg-4" edge="1">
          <mxGeometry relative="1" as="geometry">
            <mxPoint x="369" y="430" as="sourcePoint" />
          </mxGeometry>
        </mxCell>
        <mxCell id="TYqqyXj6VG3_gaBh5XJg-13" style="edgeStyle=orthogonalEdgeStyle;rounded=0;orthogonalLoop=1;jettySize=auto;html=1;exitX=0.5;exitY=1;exitDx=0;exitDy=0;" parent="1" target="TYqqyXj6VG3_gaBh5XJg-5" edge="1">
          <mxGeometry relative="1" as="geometry">
            <mxPoint x="369" y="430" as="sourcePoint" />
          </mxGeometry>
        </mxCell>
        <mxCell id="TYqqyXj6VG3_gaBh5XJg-22" style="edgeStyle=orthogonalEdgeStyle;rounded=0;orthogonalLoop=1;jettySize=auto;html=1;exitX=0.5;exitY=1;exitDx=0;exitDy=0;" parent="1" source="TYqqyXj6VG3_gaBh5XJg-6" target="TYqqyXj6VG3_gaBh5XJg-7" edge="1">
          <mxGeometry relative="1" as="geometry" />
        </mxCell>
        <mxCell id="TYqqyXj6VG3_gaBh5XJg-6" value="&lt;span style=&quot;font-size: 15px&quot;&gt;选择模型管道&lt;/span&gt;" style="rounded=0;whiteSpace=wrap;html=1;" parent="1" vertex="1">
          <mxGeometry x="296" y="360" width="146" height="40" as="geometry" />
        </mxCell>
        <mxCell id="TYqqyXj6VG3_gaBh5XJg-17" style="edgeStyle=orthogonalEdgeStyle;rounded=0;orthogonalLoop=1;jettySize=auto;html=1;exitX=0.5;exitY=1;exitDx=0;exitDy=0;" parent="1" source="TYqqyXj6VG3_gaBh5XJg-7" target="TYqqyXj6VG3_gaBh5XJg-8" edge="1">
          <mxGeometry relative="1" as="geometry" />
        </mxCell>
        <mxCell id="TYqqyXj6VG3_gaBh5XJg-7" value="&lt;span style=&quot;font-size: 15px&quot;&gt;任务历史运行信息展示&lt;/span&gt;" style="rounded=0;whiteSpace=wrap;html=1;" parent="1" vertex="1">
          <mxGeometry x="290" y="555" width="160" height="40" as="geometry" />
        </mxCell>
        <mxCell id="TYqqyXj6VG3_gaBh5XJg-8" value="结束" style="strokeWidth=1;html=1;shape=mxgraph.flowchart.terminator;whiteSpace=wrap;rounded=1;glass=0;fontSize=15;" parent="1" vertex="1">
          <mxGeometry x="324" y="630" width="90" height="50" as="geometry" />
        </mxCell>
        <mxCell id="TYqqyXj6VG3_gaBh5XJg-23" style="edgeStyle=orthogonalEdgeStyle;rounded=0;orthogonalLoop=1;jettySize=auto;html=1;exitX=0.5;exitY=1;exitDx=0;exitDy=0;entryX=0;entryY=0.5;entryDx=0;entryDy=0;" parent="1" source="TYqqyXj6VG3_gaBh5XJg-18" target="TYqqyXj6VG3_gaBh5XJg-6" edge="1">
          <mxGeometry relative="1" as="geometry" />
        </mxCell>
        <mxCell id="TYqqyXj6VG3_gaBh5XJg-18" value="&lt;span style=&quot;font-size: 15px&quot;&gt;填写模型名称关键字/词&lt;/span&gt;" style="rounded=0;whiteSpace=wrap;html=1;" parent="1" vertex="1">
          <mxGeometry x="180" y="310" width="170" height="40" as="geometry" />
        </mxCell>
      </root>
    </mxGraphModel>
  </diagram>
</mxfile>
